<?xml version="1.0" standalone="no"?>
<!DOCTYPE svg PUBLIC "-//W3C//DTD SVG 20010904//EN"
 "http://www.w3.org/TR/2001/REC-SVG-20010904/DTD/svg10.dtd">
<svg version="1.0" xmlns="http://www.w3.org/2000/svg"
 width="816.000000pt" height="328.000000pt" viewBox="0 0 816.000000 328.000000"
 preserveAspectRatio="xMidYMid meet">

<g transform="translate(0.000000,328.000000) scale(0.100000,-0.100000)"
fill="#000000" stroke="none">
<path d="M6374 2126 c-92 -29 -178 -116 -206 -208 -6 -21 -17 -38 -25 -38 -8
0 -38 -11 -68 -25 -166 -79 -228 -301 -123 -446 l28 -39 -22 -43 c-17 -32 -22
-60 -22 -117 -1 -95 27 -162 93 -223 45 -42 138 -87 180 -87 12 0 24 -12 32
-32 54 -137 186 -209 323 -178 63 14 131 61 165 115 l27 43 19 -35 c20 -37 68
-79 125 -109 25 -13 57 -18 110 -18 64 0 83 4 129 29 61 34 104 82 127 141 14
37 20 42 55 48 103 16 200 98 238 199 27 72 27 129 0 210 l-21 64 26 37 c73
107 60 265 -29 364 -44 48 -131 102 -165 102 -11 0 -21 14 -28 38 -41 135
-175 229 -315 220 -105 -6 -196 -62 -246 -150 l-28 -48 -18 41 c-54 118 -225
187 -361 145z m214 -50 c59 -30 105 -78 131 -136 19 -41 21 -65 21 -277 l0
-232 -37 -6 c-61 -10 -100 -25 -127 -46 -25 -20 -26 -20 -32 -2 -6 19 -22 52
-56 117 -28 52 -28 135 -1 196 18 41 67 95 109 118 30 17 6 34 -25 17 -29 -15
-111 -101 -111 -116 0 -19 -33 -8 -61 20 -51 52 -28 128 45 147 14 3 26 10 26
14 0 32 -74 8 -108 -35 -42 -53 -21 -136 43 -171 31 -16 31 -17 31 -94 l0 -77
-33 9 c-18 5 -38 6 -43 3 -20 -12 -9 -23 30 -30 53 -9 104 -57 121 -114 10
-34 10 -46 1 -59 -42 -58 -71 -171 -45 -179 7 -3 16 17 23 51 13 64 54 125
107 160 38 25 120 49 135 40 12 -8 10 -473 -3 -518 -6 -21 -30 -59 -53 -84
l-42 -44 -55 15 c-104 31 -149 123 -99 204 23 38 53 58 98 68 30 6 47 35 20
35 -85 0 -168 -85 -168 -171 0 -22 -5 -29 -20 -29 -55 0 -145 62 -176 122 -8
15 -19 50 -25 78 -7 34 -16 50 -26 50 -27 0 -7 -83 45 -182 5 -11 -57 2 -103
22 -56 24 -120 92 -139 147 -23 66 -20 158 5 213 l21 45 14 -55 c16 -59 56
-127 80 -137 27 -10 27 6 0 37 -25 31 -56 115 -56 155 0 40 30 124 55 153 29
34 31 42 11 42 -23 0 -66 -64 -86 -127 l-18 -57 -31 49 c-17 27 -36 68 -42 90
-22 81 9 191 72 254 36 36 121 81 154 81 16 0 24 12 37 58 48 165 234 245 386
168z m572 3 c67 -29 126 -96 147 -169 17 -56 18 -56 67 -68 126 -30 215 -155
204 -287 -4 -52 -39 -134 -69 -161 -15 -14 -17 -12 -24 23 -13 71 -64 149 -91
139 -16 -6 -15 -8 3 -29 42 -45 57 -89 57 -162 0 -72 -15 -117 -56 -161 -26
-28 -5 -43 24 -18 28 26 49 69 64 129 l12 50 22 -49 c50 -110 17 -249 -78
-321 -41 -32 -147 -73 -158 -62 -2 2 7 24 21 49 32 57 45 138 22 138 -10 0
-18 -14 -22 -42 -4 -24 -15 -59 -25 -78 -34 -66 -120 -130 -175 -130 -22 0
-25 4 -25 36 0 75 -62 144 -142 159 -30 6 -38 4 -38 -8 0 -9 17 -19 44 -26
102 -25 140 -149 69 -223 -15 -16 -50 -35 -77 -43 -57 -17 -76 -10 -119 47
-47 62 -48 81 -45 608 3 460 4 497 22 530 73 137 224 190 366 129z m-781
-1235 c60 -10 66 -13 84 -43 9 -16 38 -40 64 -52 l47 -23 -33 -9 c-44 -11
-126 7 -174 39 -37 24 -97 105 -97 131 0 8 13 4 36 -12 20 -13 52 -27 73 -31z
m861 41 c0 -3 -9 -23 -20 -44 -42 -84 -159 -143 -244 -124 l-41 9 47 21 c25
12 54 34 64 50 24 36 33 43 64 43 14 0 46 11 70 24 48 25 60 29 60 21z"/>
<path d="M7047 1903 c-14 -13 -6 -22 23 -28 37 -8 70 -49 70 -87 0 -31 -47
-88 -72 -88 -7 0 -24 19 -38 41 -32 53 -107 106 -123 89 -9 -10 -8 -14 3 -18
8 -3 36 -26 62 -51 86 -86 98 -200 32 -303 -19 -29 -34 -61 -34 -71 0 -10 -23
-39 -50 -64 -54 -50 -90 -100 -90 -127 0 -28 19 -17 39 23 27 52 92 106 147
121 28 8 69 11 109 7 40 -4 65 -2 65 4 0 19 -56 31 -122 26 -76 -5 -79 -1 -48
51 20 32 86 71 123 72 9 0 17 4 17 9 0 18 -19 22 -52 13 l-33 -9 0 78 c0 77 0
79 29 90 62 26 86 121 44 174 -12 15 -36 34 -54 41 -38 16 -39 16 -47 7z"/>
<path d="M660 1725 l0 -205 -55 0 -55 0 0 115 0 115 -105 0 -105 0 0 -115 0
-115 -45 0 -45 0 0 -80 0 -80 44 0 44 0 4 -162 c3 -145 6 -168 25 -205 43 -80
129 -115 238 -94 34 6 108 11 164 11 l101 0 0 180 c0 196 5 219 56 259 38 30
107 29 139 -3 36 -36 45 -87 45 -268 l0 -168 105 0 105 0 0 82 0 81 28 -39
c35 -48 87 -88 150 -117 37 -16 66 -21 137 -21 117 1 189 27 257 95 l48 48 0
-64 0 -65 105 0 105 0 0 170 c0 189 11 234 65 258 34 15 99 15 142 0 29 -11
33 -16 28 -37 -10 -39 -7 -145 5 -189 16 -60 69 -133 123 -169 105 -70 258
-64 340 14 l27 27 0 -37 0 -37 105 0 105 0 0 305 0 305 -105 0 -105 0 0 -25
c0 -26 -14 -33 -26 -14 -17 28 -100 52 -175 53 -63 0 -86 -5 -132 -28 -31 -15
-70 -44 -87 -64 -35 -43 -38 -37 -10 18 l20 39 -32 17 c-45 24 -143 24 -188 0
-19 -10 -50 -32 -67 -49 l-33 -31 0 42 0 42 -105 0 -105 0 0 -97 0 -97 -26 52
c-42 84 -114 133 -226 152 -138 24 -266 -29 -343 -143 l-33 -48 -6 36 c-20
103 -187 187 -307 155 -24 -7 -62 -25 -84 -41 l-40 -30 -3 236 -2 235 -105 0
-105 0 0 -205z m1023 -336 c29 -15 56 -50 57 -71 0 -16 -12 -18 -110 -18 -93
0 -110 2 -110 16 0 62 98 106 163 73z m-1024 -171 c0 -79 -3 -138 -5 -132 -4
9 -13 9 -35 0 -28 -10 -33 -9 -50 13 -16 20 -19 40 -19 142 l0 119 55 0 55 0
-1 -142z m2157 117 c45 -29 66 -74 61 -133 -4 -59 -30 -95 -84 -118 -44 -19
-69 -18 -119 6 -102 50 -98 199 6 253 40 21 97 18 136 -8z m-878 -212 c2 -39
-1 -63 -7 -63 -6 0 -40 14 -75 32 l-65 32 -40 -28 c-73 -51 -166 -44 -216 15
-14 17 -25 42 -25 55 l0 24 213 -2 212 -3 3 -62z"/>
<path d="M4094 1853 c-8 -21 -70 -175 -137 -342 l-122 -304 -6 50 c-12 97 -73
193 -154 243 -82 50 -214 46 -297 -10 l-43 -29 -3 29 -3 30 -105 0 -104 0 0
-460 0 -460 105 0 105 0 0 180 c0 99 2 180 5 180 2 0 20 -11 40 -24 67 -46
187 -55 270 -21 17 6 46 25 64 41 29 24 33 25 27 9 -24 -58 -28 -55 100 -55
l119 0 36 98 36 97 185 3 185 2 38 -100 38 -100 193 0 194 0 0 490 0 490 -110
0 -110 0 -2 -394 -3 -394 -159 394 -159 394 -103 0 -104 0 -16 -37z m176 -411
c27 -72 50 -134 50 -137 0 -3 -47 -5 -105 -5 -63 0 -105 4 -105 10 0 8 31 94
91 249 5 13 11 22 14 20 2 -3 27 -64 55 -137z m-746 -96 c126 -52 104 -247
-31 -272 -50 -9 -121 21 -146 63 -23 40 -24 110 -3 150 32 63 110 88 180 59z"/>
<path d="M5149 1121 c-35 -34 -39 -44 -39 -87 0 -62 25 -105 75 -128 113 -54
233 66 179 179 -23 50 -66 75 -128 75 -43 0 -53 -4 -87 -39z"/>
</g>
</svg>
